<svg xmlns="http://www.w3.org/2000/svg" viewBox="0 0 100 100" width="200" height="200" role="img" aria-label="glossuRabban portrait">
  <defs>
    <radialGradient id="glossuRabban-bg" cx="50%" cy="34%" r="80%">
      <stop offset="0%" stop-color="#7a2626"/>
      <stop offset="100%" stop-color="#1c0808"/>
    </radialGradient>
    <radialGradient id="glossuRabban-vig" cx="50%" cy="45%" r="65%">
      <stop offset="55%" stop-color="#000" stop-opacity="0"/>
      <stop offset="100%" stop-color="#000" stop-opacity="0.5"/>
    </radialGradient>
    <clipPath id="glossuRabban-clip"><rect x="0" y="0" width="100" height="100" rx="10"/></clipPath>
  </defs>
  <g clip-path="url(#glossuRabban-clip)">
    <rect width="100" height="100" fill="url(#glossuRabban-bg)"/>
    <path d="M50 14 L80 24 V52 C80 72 66 84 50 92 C34 84 20 72 20 52 V24 Z"
    fill="none" stroke="#e0604f" stroke-width="2" opacity="0.12"/>
    
    <path d="M6 100 C6 76 24 66 50 66 C76 66 94 76 94 100 Z" fill="#3a1414"/>
    <path d="M6 100 C6 76 24 66 50 66 C76 66 94 76 94 100 Z" fill="#000" opacity="0.18"/>
    <path d="M38 68 L50 84 L62 68 L58 66 L50 76 L42 66 Z" fill="#e0604f" opacity="0.85"/>
  
    
    
    <rect x="43" y="52" width="14" height="16" rx="6" fill="#c28a68"/>
    <rect x="43" y="52" width="14" height="16" rx="6" fill="#000" opacity="0.12"/>
    
    <ellipse cx="50" cy="42" rx="16.5" ry="19" fill="#c28a68"/>
    <ellipse cx="33.5" cy="43" rx="2.4" ry="3.4" fill="#c28a68"/>
    <ellipse cx="66.5" cy="43" rx="2.4" ry="3.4" fill="#c28a68"/>
  
    <path d="M40 40 L46.5 37.5" stroke="#241a12" stroke-width="1.8" stroke-linecap="round"/>
       <path d="M60 40 L53.5 37.5" stroke="#241a12" stroke-width="1.8" stroke-linecap="round"/><ellipse cx="42" cy="43" rx="2.6" ry="1.7" fill="#fff" opacity="0.85"/>
       <circle cx="42" cy="43" r="1.2" fill="#241a12"/><ellipse cx="58" cy="43" rx="2.6" ry="1.7" fill="#fff" opacity="0.85"/>
       <circle cx="58" cy="43" r="1.2" fill="#241a12"/><path d="M50 44 L48 50 Q50 51.5 52 50" fill="none" stroke="#00000040" stroke-width="1.2" stroke-linecap="round"/><path d="M45 55 Q50 53 55 55" fill="none" stroke="#00000055" stroke-width="1.4" stroke-linecap="round"/>
    <g>
        <path d="M30 40 C30 22 70 22 70 40 L70 34 C66 27 34 27 30 34 Z" fill="#3a3f45"/>
        <path d="M30 40 C30 24 70 24 70 40" fill="none" stroke="#e0604f" stroke-width="2"/>
        <rect x="47.5" y="38" width="5" height="14" rx="2" fill="#3a3f45"/>
        <path d="M30 38 L26 44 M70 38 L74 44" stroke="#3a3f45" stroke-width="3" stroke-linecap="round"/>
      </g>
    <rect width="100" height="100" fill="url(#glossuRabban-vig)"/>
    <circle cx="88" cy="12" r="6.5" fill="#000" opacity="0.35"/>
    <circle cx="88" cy="12" r="4" fill="#e0604f"/>
    <rect x="0.75" y="0.75" width="98.5" height="98.5" rx="9.25" fill="none" stroke="#ffffff" stroke-opacity="0.14" stroke-width="1.5"/>
  </g>
</svg>
