<svg xmlns="http://www.w3.org/2000/svg" viewBox="0 0 100 100" width="200" height="200" role="img" aria-label="ilbanRichese portrait">
  <defs>
    <radialGradient id="ilbanRichese-bg" cx="50%" cy="34%" r="80%">
      <stop offset="0%" stop-color="#555c66"/>
      <stop offset="100%" stop-color="#131619"/>
    </radialGradient>
    <radialGradient id="ilbanRichese-vig" cx="50%" cy="45%" r="65%">
      <stop offset="55%" stop-color="#000" stop-opacity="0"/>
      <stop offset="100%" stop-color="#000" stop-opacity="0.5"/>
    </radialGradient>
    <clipPath id="ilbanRichese-clip"><rect x="0" y="0" width="100" height="100" rx="10"/></clipPath>
  </defs>
  <g clip-path="url(#ilbanRichese-clip)">
    <rect width="100" height="100" fill="url(#ilbanRichese-bg)"/>
    <path d="M50 14 L80 24 V52 C80 72 66 84 50 92 C34 84 20 72 20 52 V24 Z"
    fill="none" stroke="#b6c6d2" stroke-width="2" opacity="0.12"/>
    
    <path d="M6 100 C6 76 24 66 50 66 C76 66 94 76 94 100 Z" fill="#33383e"/>
    <path d="M6 100 C6 76 24 66 50 66 C76 66 94 76 94 100 Z" fill="#000" opacity="0.18"/>
    <path d="M38 68 L50 84 L62 68 L58 66 L50 76 L42 66 Z" fill="#b6c6d2" opacity="0.85"/>
  
    <path d="M31 40 C31 22 69 22 69 40 C69 33 64 27 50 27 C36 27 31 33 31 40 Z" fill="#5a5148"/>
    
    <rect x="43" y="52" width="14" height="16" rx="6" fill="#d6b896"/>
    <rect x="43" y="52" width="14" height="16" rx="6" fill="#000" opacity="0.12"/>
    
    <ellipse cx="50" cy="42" rx="16.5" ry="19" fill="#d6b896"/>
    <ellipse cx="33.5" cy="43" rx="2.4" ry="3.4" fill="#d6b896"/>
    <ellipse cx="66.5" cy="43" rx="2.4" ry="3.4" fill="#d6b896"/>
  
    <path d="M40 39 Q43.5 37.2 47 39" stroke="#241a12" stroke-width="1.5" fill="none" stroke-linecap="round"/>
       <path d="M53 39 Q56.5 37.2 60 39" stroke="#241a12" stroke-width="1.5" fill="none" stroke-linecap="round"/><rect x="34" y="40.5" width="32" height="5" rx="2.5" fill="#1a1d22" opacity="0.85"/>
       <rect x="35" y="41.5" width="30" height="1.4" rx="0.7" fill="#b6c6d2" opacity="0.7"/><path d="M50 44 L48 50 Q50 51.5 52 50" fill="none" stroke="#00000040" stroke-width="1.2" stroke-linecap="round"/><path d="M38 50 C40 58 45 61 50 61 C55 61 60 58 62 50 C56 55 44 55 38 50 Z" fill="#5a5148" opacity="0.9"/>
    <g><rect x="48.4" y="16.4" width="3.2" height="3.2" rx="0.8" fill="#b6c6d2"/><rect x="55.45" y="17.55" width="3.2" height="3.2" rx="0.8" fill="#b6c6d2"/><rect x="59.81" y="20.55" width="3.2" height="3.2" rx="0.8" fill="#b6c6d2"/><rect x="59.81" y="24.25" width="3.2" height="3.2" rx="0.8" fill="#b6c6d2"/><rect x="55.45" y="27.25" width="3.2" height="3.2" rx="0.8" fill="#b6c6d2"/><rect x="48.4" y="28.4" width="3.2" height="3.2" rx="0.8" fill="#b6c6d2"/><rect x="41.35" y="27.25" width="3.2" height="3.2" rx="0.8" fill="#b6c6d2"/><rect x="36.99" y="24.25" width="3.2" height="3.2" rx="0.8" fill="#b6c6d2"/><rect x="36.99" y="20.55" width="3.2" height="3.2" rx="0.8" fill="#b6c6d2"/><rect x="41.35" y="17.55" width="3.2" height="3.2" rx="0.8" fill="#b6c6d2"/><ellipse cx="50" cy="24" rx="12" ry="6" fill="none" stroke="#b6c6d2" stroke-width="2"/></g>
    <rect width="100" height="100" fill="url(#ilbanRichese-vig)"/>
    <circle cx="88" cy="12" r="6.5" fill="#000" opacity="0.35"/>
    <circle cx="88" cy="12" r="4" fill="#b6c6d2"/>
    <rect x="0.75" y="0.75" width="98.5" height="98.5" rx="9.25" fill="none" stroke="#ffffff" stroke-opacity="0.14" stroke-width="1.5"/>
  </g>
</svg>
