<svg xmlns="http://www.w3.org/2000/svg" viewBox="0 0 100 100" width="200" height="200" role="img" aria-label="memnonThorvald portrait">
  <defs>
    <radialGradient id="memnonThorvald-bg" cx="50%" cy="34%" r="80%">
      <stop offset="0%" stop-color="#59662a"/>
      <stop offset="100%" stop-color="#181f0b"/>
    </radialGradient>
    <radialGradient id="memnonThorvald-vig" cx="50%" cy="45%" r="65%">
      <stop offset="55%" stop-color="#000" stop-opacity="0"/>
      <stop offset="100%" stop-color="#000" stop-opacity="0.5"/>
    </radialGradient>
    <clipPath id="memnonThorvald-clip"><rect x="0" y="0" width="100" height="100" rx="10"/></clipPath>
  </defs>
  <g clip-path="url(#memnonThorvald-clip)">
    <rect width="100" height="100" fill="url(#memnonThorvald-bg)"/>
    <path d="M50 14 L80 24 V52 C80 72 66 84 50 92 C34 84 20 72 20 52 V24 Z"
    fill="none" stroke="#c0d45c" stroke-width="2" opacity="0.12"/>
    
    <path d="M6 100 C6 76 24 66 50 66 C76 66 94 76 94 100 Z" fill="#3a451c"/>
    <path d="M6 100 C6 76 24 66 50 66 C76 66 94 76 94 100 Z" fill="#000" opacity="0.18"/>
    <path d="M38 68 L50 84 L62 68 L58 66 L50 76 L42 66 Z" fill="#c0d45c" opacity="0.85"/>
  
    <path d="M31 40 C31 22 69 22 69 40 C69 33 64 27 50 27 C36 27 31 33 31 40 Z" fill="#40301a"/>
    
    <rect x="43" y="52" width="14" height="16" rx="6" fill="#d6b085"/>
    <rect x="43" y="52" width="14" height="16" rx="6" fill="#000" opacity="0.12"/>
    
    <ellipse cx="50" cy="42" rx="16.5" ry="19" fill="#d6b085"/>
    <ellipse cx="33.5" cy="43" rx="2.4" ry="3.4" fill="#d6b085"/>
    <ellipse cx="66.5" cy="43" rx="2.4" ry="3.4" fill="#d6b085"/>
  
    <path d="M40 39 Q43.5 37.2 47 39" stroke="#241a12" stroke-width="1.5" fill="none" stroke-linecap="round"/>
       <path d="M53 39 Q56.5 37.2 60 39" stroke="#241a12" stroke-width="1.5" fill="none" stroke-linecap="round"/><ellipse cx="42" cy="43" rx="2.6" ry="1.7" fill="#fff" opacity="0.85"/>
       <circle cx="42" cy="43" r="1.2" fill="#241a12"/><ellipse cx="58" cy="43" rx="2.6" ry="1.7" fill="#fff" opacity="0.85"/>
       <circle cx="58" cy="43" r="1.2" fill="#241a12"/><path d="M50 44 L48 50 Q50 51.5 52 50" fill="none" stroke="#00000040" stroke-width="1.2" stroke-linecap="round"/><path d="M35 46 C36 62 44 68 50 68 C56 68 64 62 65 46 C60 56 40 56 35 46 Z" fill="#40301a"/><path d="M46 54 Q50 56 54 54" fill="none" stroke="#00000045" stroke-width="1.3" stroke-linecap="round"/>
    <path d="M34 31 L38 26 L44 30 L50 24 L56 30 L62 26 L66 31 Q50 27 34 31 Z" fill="#c0d45c"/>
    <rect width="100" height="100" fill="url(#memnonThorvald-vig)"/>
    <circle cx="88" cy="12" r="6.5" fill="#000" opacity="0.35"/>
    <circle cx="88" cy="12" r="4" fill="#c0d45c"/>
    <rect x="0.75" y="0.75" width="98.5" height="98.5" rx="9.25" fill="none" stroke="#ffffff" stroke-opacity="0.14" stroke-width="1.5"/>
  </g>
</svg>
