<svg xmlns="http://www.w3.org/2000/svg" viewBox="0 0 100 100" width="200" height="200" role="img" aria-label="paulAtreides portrait">
  <defs>
    <radialGradient id="paulAtreides-bg" cx="50%" cy="34%" r="80%">
      <stop offset="0%" stop-color="#2f6b4f"/>
      <stop offset="100%" stop-color="#0c1c15"/>
    </radialGradient>
    <radialGradient id="paulAtreides-vig" cx="50%" cy="45%" r="65%">
      <stop offset="55%" stop-color="#000" stop-opacity="0"/>
      <stop offset="100%" stop-color="#000" stop-opacity="0.5"/>
    </radialGradient>
    <clipPath id="paulAtreides-clip"><rect x="0" y="0" width="100" height="100" rx="10"/></clipPath>
  </defs>
  <g clip-path="url(#paulAtreides-clip)">
    <rect width="100" height="100" fill="url(#paulAtreides-bg)"/>
    <path d="M50 14 L80 24 V52 C80 72 66 84 50 92 C34 84 20 72 20 52 V24 Z"
    fill="none" stroke="#4bbd8a" stroke-width="2" opacity="0.12"/>
    
    <path d="M6 100 C6 76 24 66 50 66 C76 66 94 76 94 100 Z" fill="#1f4d38"/>
    <path d="M6 100 C6 76 24 66 50 66 C76 66 94 76 94 100 Z" fill="#000" opacity="0.18"/>
    <path d="M38 68 L50 84 L62 68 L58 66 L50 76 L42 66 Z" fill="#4bbd8a" opacity="0.85"/>
  
    
    
    <rect x="43" y="52" width="14" height="16" rx="6" fill="#dcb488"/>
    <rect x="43" y="52" width="14" height="16" rx="6" fill="#000" opacity="0.12"/>
    
    <ellipse cx="50" cy="42" rx="16.5" ry="19" fill="#dcb488"/>
    <ellipse cx="33.5" cy="43" rx="2.4" ry="3.4" fill="#dcb488"/>
    <ellipse cx="66.5" cy="43" rx="2.4" ry="3.4" fill="#dcb488"/>
  
    <path d="M40 39 Q43.5 37.2 47 39" stroke="#241a12" stroke-width="1.5" fill="none" stroke-linecap="round"/>
       <path d="M53 39 Q56.5 37.2 60 39" stroke="#241a12" stroke-width="1.5" fill="none" stroke-linecap="round"/><ellipse cx="42" cy="43" rx="3.1" ry="2" fill="#2f8fe0"/>
       <ellipse cx="42" cy="43" rx="3.1" ry="2" fill="none" stroke="#7fd0ff" stroke-width="0.7"/><ellipse cx="58" cy="43" rx="3.1" ry="2" fill="#2f8fe0"/>
       <ellipse cx="58" cy="43" rx="3.1" ry="2" fill="none" stroke="#7fd0ff" stroke-width="0.7"/><path d="M50 44 L48 50 Q50 51.5 52 50" fill="none" stroke="#00000040" stroke-width="1.2" stroke-linecap="round"/><path d="M46 54 Q50 56 54 54" fill="none" stroke="#00000045" stroke-width="1.3" stroke-linecap="round"/>
    
        <path d="M24 46 C24 16 76 16 76 46 C76 40 74 34 70 30 C64 22 36 22 30 30 C26 34 24 40 24 46 Z"
          fill="#1f4d38"/>
        <path d="M27 47 C27 24 73 24 73 47" fill="none" stroke="#4bbd8a" stroke-width="1.6" opacity="0.5"/>
        <path d="M30 30 C36 22 64 22 70 30 L66 33 C60 27 40 27 34 33 Z" fill="#000" opacity="0.2"/>
    <rect width="100" height="100" fill="url(#paulAtreides-vig)"/>
    <circle cx="88" cy="12" r="6.5" fill="#000" opacity="0.35"/>
    <circle cx="88" cy="12" r="4" fill="#4bbd8a"/>
    <rect x="0.75" y="0.75" width="98.5" height="98.5" rx="9.25" fill="none" stroke="#ffffff" stroke-opacity="0.14" stroke-width="1.5"/>
  </g>
</svg>
